PathFileType	4	(X/Y/Z)	10_2_75_p0_0-507_filt_butterworth.trc
DataRate	CameraRate	NumFrames	NumMarkers	Units	OrigDataRate	OrigDataStartFrame	OrigNumFrames
60.0	60.0	6	27	m	60.0	253	507
Frame#	Time	RHip			RKnee			RAnkle			RBigToe			RSmallToe			RHeel			LHip			LKnee			LAnkle			LBigToe			LSmallToe			LHeel			Neck			Head			Nose			RShoulder			RElbow			RWrist			RThumb			RIndex			RPinky			LShoulder			LElbow			LWrist			LThumb			LIndex			LPinky			
		X1	Y1	Z1	X2	Y2	Z2	X3	Y3	Z3	X4	Y4	Z4	X5	Y5	Z5	X6	Y6	Z6	X7	Y7	Z7	X8	Y8	Z8	X9	Y9	Z9	X10	Y10	Z10	X11	Y11	Z11	X12	Y12	Z12	X13	Y13	Z13	X14	Y14	Z14	X15	Y15	Z15	X16	Y16	Z16	X17	Y17	Z17	X18	Y18	Z18	X19	Y19	Z19	X20	Y20	Z20	X21	Y21	Z21	X22	Y22	Z22	X23	Y23	Z23	X24	Y24	Z24	X25	Y25	Z25	X26	Y26	Z26	X27	Y27	Z27	
253	4.216666666666667	0.3022521639299527	0.5490689671562232	0.9185765960472178	0.3024918244180016	0.6811175021143647	1.3811875101947995	0.29859109301472214	0.8116705311675316	1.8042590814153043	0.27573968889195816	0.5924273014723234	1.840919549978088	0.32462722481462597	0.6446467518033034	1.8473686289175981	0.27076578952213576	0.8935419080956657	1.8644694663842887	0.07332325700530834	0.5174086411448937	0.9237390527165857	0.0789311662322803	0.6450533602326054	1.3695860808070062	0.08396746918381112	0.7767851335436453	1.802853900234727	0.1231010386979082	0.59893250621468	1.85718515246761	0.06317480051291574	0.6245868579453361	1.844121152538064	0.08902888845099124	0.874458273240623	1.8598061089952882	0.18539560211207615	0.4143500550376933	0.34346436296059046	0.2100904463211849	0.2778097653373562	0.11013350046592438	0.20183873331499022	0.2189384939716553	0.2496731800360736	0.3632782443010516	0.4436436003475868	0.42822883894356173	0.4039686270005216	0.5239627585261293	0.7125304331708148	0.4133562569578031	0.560988014195306	0.9749075379132734	0.3588605822198964	0.501353738488532	1.0885072783249312	0.3815163314578388	0.5159826593088163	1.1359094600761344	0.4201008148105562	0.5982429125135541	1.13087957515658	0.04155784061436761	0.4189470215467548	0.4231930217380768	-0.022368192873480786	0.4845242065994	0.7184163345309841	-0.03179624419620532	0.5060485841896574	0.9728411268490336	0.02636686311541766	0.47264091936035146	1.0867976547428027	-0.015991481370975422	0.5135361166037564	1.1173022176986385	-0.04149160265128653	0.5353465910852973	1.1134995318858614
254	4.233333333333333	0.3022084238114041	0.5490718383606521	0.9185710308616466	0.3015089040525571	0.6808269273704574	1.3806418197582686	0.29861456419876886	0.811623321208297	1.8042316197864214	0.27575298520561	0.5924907266541952	1.840935222841184	0.324617869936114	0.6448026765805878	1.847353470291057	0.27113432552524513	0.8935593386688302	1.8647037655664374	0.0733204158306913	0.5174844123202323	0.9238457992685368	0.07852552533634866	0.6447892856994375	1.3695574509354427	0.08392953528834429	0.7773630818359739	1.8035691331177417	0.12316556704340449	0.5989291837711876	1.8577926723366223	0.0632232645870775	0.6244467806614327	1.844534091774777	0.08871184315165241	0.8750388664544148	1.860647251688666	0.1859720057904882	0.415958816562948	0.3432197991038071	0.21013348738706505	0.2777504446068529	0.11022708105470806	0.20185006827446228	0.21900875265049907	0.2496791418775739	0.3632858493091897	0.44364109132882146	0.4282366537841952	0.40391193903801165	0.5241552051797123	0.7133150803362837	0.41334750348246174	0.5610331323267974	0.9749108316774517	0.35877932528506895	0.5015114647119178	1.0885262295670797	0.38091335030311874	0.5156826714987608	1.1355546927333418	0.42008023666416106	0.5982483186600652	1.1311324240403478	0.04156724728792388	0.4189397163162044	0.42310748122063024	-0.0220279789408499	0.4847760943348602	0.7183914882511875	-0.03181657180055209	0.5060181592196386	0.9728036172595863	0.026318751295115867	0.47260572764010605	1.0867426267829603	-0.016029475528541316	0.5135403379378499	1.1172840623644869	-0.041486510456252214	0.5353198384215594	1.1135110490935651
255	4.25	0.3021754610070583	0.5491470695816537	0.9186798811884204	0.30138901380415073	0.681010169337273	1.3806510068972684	0.29863138906921305	0.8116127702469066	1.804218493420743	0.27575211808884614	0.5925634977683205	1.8409348019430218	0.3246835313911468	0.6449661245220525	1.84737242419425	0.27128125216390636	0.8933578065840834	1.8649496841134892	0.07331580514924647	0.5175467582478928	0.9239141599152431	0.07851579738716252	0.6447956658092979	1.3695545611494369	0.08376297813782181	0.7774881150902044	1.8035511875238401	0.12308736503060722	0.5986800149650029	1.8580057849292504	0.06323052159858658	0.6244502630541432	1.8446177970838806	0.08850793947986449	0.8755231040655531	1.8606386335155898	0.1864904703717646	0.416173813313301	0.3431737010614838	0.21014948620082446	0.27775151789198366	0.10989772350528287	0.20232143254371407	0.21792337828010327	0.24984718866741518	0.36329282108098165	0.44363906439790934	0.4282601718162118	0.4038635195416562	0.5243425173731258	0.7140955874867833	0.41326733052996156	0.5613241789753495	0.974955430849484	0.3592002298011188	0.5001694050839782	1.0883787759838182	0.3808286521411589	0.5154792683465601	1.1354434413486174	0.420074473890818	0.5981903995221122	1.1315363418095743	0.041550013838874904	0.4190235192542299	0.42311129811827797	-0.022023199736528967	0.48480719332405436	0.718384059967005	-0.031841871967413775	0.5060183050316182	0.9727622709461582	0.026274645565999274	0.4726209775030143	1.086711677354373	-0.016064188769332247	0.5136311090229155	1.1172738264620072	-0.041488426721339525	0.5353326363343787	1.1135241123580595
256	4.266666666666667	0.3021526754105718	0.5491864717923678	0.9187130253109371	0.30229077178631836	0.6814265598407478	1.3809400484597627	0.2986382470708578	0.8116407181443571	1.8042139494727158	0.275723758508373	0.5926021137221188	1.840906341514648	0.3247591082434904	0.6450439121094669	1.847399590793958	0.2716321916772868	0.8932320647833298	1.8651784500711877	0.07331587628767366	0.5175723342663985	0.9239128555780772	0.07861274600543836	0.6448610284131506	1.3695542874149416	0.0834031841899211	0.7760553268239808	1.8027953749407162	0.12291624017048841	0.5984428481877524	1.8580522135202404	0.0632236699183265	0.6244971513730909	1.8446111069621194	0.08857764296301893	0.8746003441849624	1.8591553186615721	0.18670232666352632	0.4159287169610916	0.3435651096357936	0.21013033386597676	0.27776233408010986	0.10896722181776704	0.20351016169865882	0.2150608889588606	0.2502566213270279	0.3632941949812618	0.4436481847217719	0.4282900436939184	0.40382294782399375	0.5245051407056135	0.7147885494985331	0.4132981002909307	0.561211142137257	0.9749550591588744	0.36029095975945025	0.4967030448713541	1.0878517317711018	0.3809248271515498	0.5153945084810982	1.1350586920898316	0.42007528786730536	0.5981310863769238	1.1317185659614974	0.041540868151472204	0.419077968261333	0.42288974094669984	-0.022066211789542472	0.4847827362356995	0.7184005953290958	-0.03185949989834587	0.5060378195048575	0.9727352535892176	0.02625385377317432	0.4726495971820807	1.0867002827669183	-0.016078982199669804	0.5137396107558734	1.1172755267982117	-0.04149263274835324	0.5353736702678628	1.1135289993692343
257	4.283333333333333	0.3021565793791711	0.5491764268988614	0.9186567596589232	0.3037870331307074	0.6820074446119216	1.3814925065293353	0.2986380577759376	0.8116819572888095	1.8042229884712107	0.2756810261962583	0.5926094929221413	1.8408941327439954	0.3247983452685834	0.644979347086782	1.8473937023550238	0.27228533034882574	0.8935321548855164	1.8654129383096634	0.07332666528621054	0.5175387389714448	0.9238429485277521	0.07869119013735676	0.6448985678043474	1.3695413791569089	0.08276651312539579	0.7726404269590414	1.801938237562447	0.1227349398977689	0.5984372645780066	1.857647774392873	0.06320655239794631	0.6245804751195507	1.84449095208082	0.08876228282236118	0.8719011955431799	1.8567613163898755	0.18678771015095746	0.41569005469222714	0.34458430150821334	0.21009255171530067	0.2777677335235538	0.10773219855333037	0.20508350738599235	0.2112500814735394	0.2507970242484109	0.36328988595705275	0.443670894601765	0.4283145439876631	0.4038118457941876	0.5245411914066379	0.7150049446179777	0.4137987605094083	0.5594555899248027	0.9747531699682276	0.361709496832285	0.4921583200181394	1.087111697800833	0.38094375420269905	0.5151816599614902	1.134142207362287	0.42009625218494423	0.5980406739508308	1.131726712461353	0.04157869138067834	0.41896796623779353	0.42218757719381894	-0.02204011905640075	0.4847480253896187	0.7184287569291197	-0.03186531512710325	0.5060650464226522	0.9727209920022912	0.02626108005468282	0.4726763224812464	1.0867018296192539	-0.01608568512660511	0.5138350894992151	1.1172861276638586	-0.0415034334873924	0.5354271719945006	1.113523131808619
258	4.3	0.30219132033963997	0.5491917505189178	0.9186709098211242	0.30504166175062325	0.6827318128178621	1.3821916561101837	0.29863508314683546	0.8117129786027968	1.8042436165353037	0.27566171926642147	0.5926039705581791	1.8409109982644345	0.32478571339882734	0.6448520468937897	1.8473443803683494	0.2729959937010346	0.8942736942766538	1.8656349795700522	0.07334153166156285	0.5174549438736731	0.9237425651951349	0.0787314666410517	0.6449083021494962	1.3695155345201793	0.08201830253574245	0.7686271883336359	1.8015484336093284	0.12258942779073517	0.5984580224749919	1.856415510762229	0.06315280779483577	0.6247824231952153	1.8439778858752551	0.08883904439284628	0.8685203775545941	1.8547624399767204	0.18690846282714663	0.41554951502699683	0.3459396127595772	0.2100630660508092	0.27777025853618664	0.10679467342499908	0.20629029236970495	0.2083509270142626	0.2512117494294497	0.36328652717627313	0.4436999384821598	0.42832872408192463	0.4038558449172179	0.5243443193215243	0.7143578000684859	0.4149881858244693	0.5553218696967493	0.9742566079028723	0.36279224908305086	0.48866200928960407	1.0865275317515604	0.3808714309509279	0.5148605734124084	1.13321076408274	0.42013349489127366	0.5979227777114802	1.1316748202620004	0.04164874743762715	0.41873340537330966	0.4212359446673408	-0.022043961551505887	0.4846743278689163	0.7184439134343722	-0.03186351683001013	0.5060889778657838	0.9727175145347833	0.026297655718986797	0.47271580731523094	1.0867198287409354	-0.01609926865523009	0.513941077384487	1.1172987944251762	-0.04152623131855232	0.5354737331188212	1.113515773124155
